<svg width="881pt" height="1642pt" viewBox="0.00 0.00 881.46 1641.69" xmlns="http://www.w3.org/2000/svg" xmlns:xlink="http://www.w3.org/1999/xlink">
<g id="graph0" class="graph" transform="scale(1 1) rotate(0) translate(4 1637.69)">
<title>HydroponicSystem</title>
<polygon fill="white" stroke="none" points="-4,4 -4,-1637.69 877.46,-1637.69 877.46,4 -4,4"/>
<g id="clust1" class="cluster">
<title>cluster_esp32</title>
<polygon fill="#e0e0ff" stroke="black" points="8,-675.69 8,-860.69 240,-860.69 240,-675.69 8,-675.69"/>
<text text-anchor="middle" x="124" y="-844.09" font-family="Times,serif" font-size="14.00">ESP32 Microcontroller</text>
</g>
<g id="clust2" class="cluster">
<title>cluster_sensors</title>
<polygon fill="#ffe0e0" stroke="black" points="378.53,-642.69 378.53,-1625.69 486.03,-1625.69 486.03,-642.69 378.53,-642.69"/>
<text text-anchor="middle" x="432.28" y="-1609.09" font-family="Times,serif" font-size="14.00">Sensor Section</text>
</g>
<g id="clust3" class="cluster">
<title>cluster_ph</title>
<polygon fill="#ffe0e0" stroke="black" points="386.92,-1197.69 386.92,-1592.69 477.65,-1592.69 477.65,-1197.69 386.92,-1197.69"/>
<text text-anchor="middle" x="432.28" y="-1576.09" font-family="Times,serif" font-size="14.00">pH Sensors</text>
</g>
<g id="clust4" class="cluster">
<title>cluster_ec</title>
<polygon fill="#ffe0e0" stroke="black" points="386.53,-794.69 386.53,-1189.69 478.03,-1189.69 478.03,-794.69 386.53,-794.69"/>
<text text-anchor="middle" x="432.28" y="-1173.09" font-family="Times,serif" font-size="14.00">EC Sensors</text>
</g>
<g id="clust5" class="cluster">
<title>cluster_relays</title>
<polygon fill="#e0ffe0" stroke="black" points="364.15,-20.69 364.15,-634.69 500.42,-634.69 500.42,-20.69 364.15,-20.69"/>
<text text-anchor="middle" x="432.28" y="-618.09" font-family="Times,serif" font-size="14.00">Relay Controls</text>
</g>
<g id="clust6" class="cluster">
<title>cluster_pumps</title>
<polygon fill="#e0ffe0" stroke="black" points="372.15,-206.69 372.15,-601.69 492.42,-601.69 492.42,-206.69 372.15,-206.69"/>
<text text-anchor="middle" x="432.28" y="-585.09" font-family="Times,serif" font-size="14.00">Pump Relays</text>
</g>
<g id="clust7" class="cluster">
<title>cluster_power</title>
<polygon fill="none" stroke="black" points="574.8,-643.69 574.8,-742.69 865.46,-742.69 865.46,-643.69 574.8,-643.69"/>
<text text-anchor="middle" x="720.13" y="-726.09" font-family="Times,serif" font-size="14.00">Power Supply</text>
</g>
<!-- ESP32 -->
<g id="node1" class="node">
<title>ESP32</title>
<path fill="none" stroke="black" d="M220,-827.69C220,-827.69 28,-827.69 28,-827.69 22,-827.69 16,-821.69 16,-815.69 16,-815.69 16,-695.69 16,-695.69 16,-689.69 22,-683.69 28,-683.69 28,-683.69 220,-683.69 220,-683.69 226,-683.69 232,-689.69 232,-695.69 232,-695.69 232,-815.69 232,-815.69 232,-821.69 226,-827.69 220,-827.69"/>
<text text-anchor="middle" x="124" y="-793.09" font-family="Times,serif" font-size="14.00">ESP32</text>
<text text-anchor="middle" x="124" y="-760.29" font-family="Times,serif" font-size="14.00">Analog Inputs:</text>
<text text-anchor="middle" x="124" y="-743.49" font-family="Times,serif" font-size="14.00">A0-A7</text>
<text text-anchor="middle" x="124" y="-726.69" font-family="Times,serif" font-size="14.00">Digital I/O:</text>
<text text-anchor="middle" x="124" y="-709.89" font-family="Times,serif" font-size="14.00">D1,D5-D12</text>
</g>
<!-- PH1 -->
<g id="node2" class="node">
<title>PH1</title>
<path fill="none" stroke="black" d="M457.65,-1560.29C457.65,-1560.29 406.92,-1560.29 406.92,-1560.29 400.92,-1560.29 394.92,-1554.29 394.92,-1548.29 394.92,-1548.29 394.92,-1497.09 394.92,-1497.09 394.92,-1491.09 400.92,-1485.09 406.92,-1485.09 406.92,-1485.09 457.65,-1485.09 457.65,-1485.09 463.65,-1485.09 469.65,-1491.09 469.65,-1497.09 469.65,-1497.09 469.65,-1548.29 469.65,-1548.29 469.65,-1554.29 463.65,-1560.29 457.65,-1560.29"/>
<text text-anchor="middle" x="432.28" y="-1543.69" font-family="Times,serif" font-size="14.00">Tank 1</text>
<text text-anchor="middle" x="432.28" y="-1526.89" font-family="Times,serif" font-size="14.00">pH Sensor</text>
<text text-anchor="middle" x="432.28" y="-1510.09" font-family="Times,serif" font-size="14.00">R1=5.1kΩ</text>
<text text-anchor="middle" x="432.28" y="-1493.29" font-family="Times,serif" font-size="14.00">R2=10kΩ</text>
</g>
<!-- ESP32&#45;&gt;PH1 -->
<g id="edge1" class="edge">
<title>ESP32-&gt;PH1</title>
<path fill="none" stroke="black" d="M130.91,-828.07C144.52,-980.05 182.23,-1326.17 250,-1420.69 285.46,-1470.14 352.78,-1498.68 394.65,-1512.41"/>
<text text-anchor="middle" x="303.07" y="-1500.01" font-family="Times,serif" font-size="14.00">Analog/Digital I/O</text>
</g>
<!-- PH2 -->
<g id="node3" class="node">
<title>PH2</title>
<path fill="none" stroke="black" d="M457.65,-1467.29C457.65,-1467.29 406.92,-1467.29 406.92,-1467.29 400.92,-1467.29 394.92,-1461.29 394.92,-1455.29 394.92,-1455.29 394.92,-1404.09 394.92,-1404.09 394.92,-1398.09 400.92,-1392.09 406.92,-1392.09 406.92,-1392.09 457.65,-1392.09 457.65,-1392.09 463.65,-1392.09 469.65,-1398.09 469.65,-1404.09 469.65,-1404.09 469.65,-1455.29 469.65,-1455.29 469.65,-1461.29 463.65,-1467.29 457.65,-1467.29"/>
<text text-anchor="middle" x="432.28" y="-1450.69" font-family="Times,serif" font-size="14.00">Tank 2</text>
<text text-anchor="middle" x="432.28" y="-1433.89" font-family="Times,serif" font-size="14.00">pH Sensor</text>
<text text-anchor="middle" x="432.28" y="-1417.09" font-family="Times,serif" font-size="14.00">R1=5.1kΩ</text>
<text text-anchor="middle" x="432.28" y="-1400.29" font-family="Times,serif" font-size="14.00">R2=10kΩ</text>
</g>
<!-- ESP32&#45;&gt;PH2 -->
<g id="edge2" class="edge">
<title>ESP32-&gt;PH2</title>
<path fill="none" stroke="black" d="M133.68,-828.01C150.96,-962.39 192.98,-1244.03 250,-1322.69 286.04,-1372.39 352.85,-1402.94 394.52,-1418.07"/>
<text text-anchor="middle" x="303.07" y="-1404.46" font-family="Times,serif" font-size="14.00">Analog/Digital I/O</text>
</g>
<!-- PH3 -->
<g id="node4" class="node">
<title>PH3</title>
<path fill="none" stroke="black" d="M457.65,-1374.29C457.65,-1374.29 406.92,-1374.29 406.92,-1374.29 400.92,-1374.29 394.92,-1368.29 394.92,-1362.29 394.92,-1362.29 394.92,-1311.09 394.92,-1311.09 394.92,-1305.09 400.92,-1299.09 406.92,-1299.09 406.92,-1299.09 457.65,-1299.09 457.65,-1299.09 463.65,-1299.09 469.65,-1305.09 469.65,-1311.09 469.65,-1311.09 469.65,-1362.29 469.65,-1362.29 469.65,-1368.29 463.65,-1374.29 457.65,-1374.29"/>
<text text-anchor="middle" x="432.28" y="-1357.69" font-family="Times,serif" font-size="14.00">Tank 3</text>
<text text-anchor="middle" x="432.28" y="-1340.89" font-family="Times,serif" font-size="14.00">pH Sensor</text>
<text text-anchor="middle" x="432.28" y="-1324.09" font-family="Times,serif" font-size="14.00">R1=5.1kΩ</text>
<text text-anchor="middle" x="432.28" y="-1307.29" font-family="Times,serif" font-size="14.00">R2=10kΩ</text>
</g>
<!-- ESP32&#45;&gt;PH3 -->
<g id="edge3" class="edge">
<title>ESP32-&gt;PH3</title>
<path fill="none" stroke="black" d="M128.6,-828.14C136.75,-925.75 163.32,-1100.91 250,-1219.69 286.99,-1270.37 353.18,-1304.82 394.53,-1322.58"/>
<text text-anchor="middle" x="303.07" y="-1306.55" font-family="Times,serif" font-size="14.00">Analog/Digital I/O</text>
</g>
<!-- PH4 -->
<g id="node5" class="node">
<title>PH4</title>
<path fill="none" stroke="black" d="M457.65,-1281.29C457.65,-1281.29 406.92,-1281.29 406.92,-1281.29 400.92,-1281.29 394.92,-1275.29 394.92,-1269.29 394.92,-1269.29 394.92,-1218.09 394.92,-1218.09 394.92,-1212.09 400.92,-1206.09 406.92,-1206.09 406.92,-1206.09 457.65,-1206.09 457.65,-1206.09 463.65,-1206.09 469.65,-1212.09 469.65,-1218.09 469.65,-1218.09 469.65,-1269.29 469.65,-1269.29 469.65,-1275.29 463.65,-1281.29 457.65,-1281.29"/>
<text text-anchor="middle" x="432.28" y="-1264.69" font-family="Times,serif" font-size="14.00">Tank 4</text>
<text text-anchor="middle" x="432.28" y="-1247.89" font-family="Times,serif" font-size="14.00">pH Sensor</text>
<text text-anchor="middle" x="432.28" y="-1231.09" font-family="Times,serif" font-size="14.00">R1=5.1kΩ</text>
<text text-anchor="middle" x="432.28" y="-1214.29" font-family="Times,serif" font-size="14.00">R2=10kΩ</text>
</g>
<!-- ESP32&#45;&gt;PH4 -->
<g id="edge4" class="edge">
<title>ESP32-&gt;PH4</title>
<path fill="none" stroke="black" d="M138.25,-828.05C154.71,-903.07 188.45,-1021 250,-1105.69 288.72,-1158.96 353.76,-1201.31 394.5,-1224.41"/>
<text text-anchor="middle" x="303.07" y="-1203.58" font-family="Times,serif" font-size="14.00">Analog/Digital I/O</text>
</g>
<!-- EC1 -->
<g id="node6" class="node">
<title>EC1</title>
<path fill="none" stroke="black" d="M458.03,-1157.29C458.03,-1157.29 406.53,-1157.29 406.53,-1157.29 400.53,-1157.29 394.53,-1151.29 394.53,-1145.29 394.53,-1145.29 394.53,-1094.09 394.53,-1094.09 394.53,-1088.09 400.53,-1082.09 406.53,-1082.09 406.53,-1082.09 458.03,-1082.09 458.03,-1082.09 464.03,-1082.09 470.03,-1088.09 470.03,-1094.09 470.03,-1094.09 470.03,-1145.29 470.03,-1145.29 470.03,-1151.29 464.03,-1157.29 458.03,-1157.29"/>
<text text-anchor="middle" x="432.28" y="-1140.69" font-family="Times,serif" font-size="14.00">Tank 1</text>
<text text-anchor="middle" x="432.28" y="-1123.89" font-family="Times,serif" font-size="14.00">EC Sensor</text>
<text text-anchor="middle" x="432.28" y="-1107.09" font-family="Times,serif" font-size="14.00">R1=5.1kΩ</text>
<text text-anchor="middle" x="432.28" y="-1090.29" font-family="Times,serif" font-size="14.00">R2=10kΩ</text>
</g>
<!-- ESP32&#45;&gt;EC1 -->
<g id="edge5" class="edge">
<title>ESP32-&gt;EC1</title>
<path fill="none" stroke="black" d="M148.54,-828.05C168.89,-882.21 202.55,-955.61 250,-1007.69 290.99,-1052.67 354.15,-1086.09 394.07,-1104.23"/>
<text text-anchor="middle" x="303.07" y="-1089.35" font-family="Times,serif" font-size="14.00">Analog/Digital I/O</text>
</g>
<!-- EC2 -->
<g id="node7" class="node">
<title>EC2</title>
<path fill="none" stroke="black" d="M458.03,-1064.29C458.03,-1064.29 406.53,-1064.29 406.53,-1064.29 400.53,-1064.29 394.53,-1058.29 394.53,-1052.29 394.53,-1052.29 394.53,-1001.09 394.53,-1001.09 394.53,-995.09 400.53,-989.09 406.53,-989.09 406.53,-989.09 458.03,-989.09 458.03,-989.09 464.03,-989.09 470.03,-995.09 470.03,-1001.09 470.03,-1001.09 470.03,-1052.29 470.03,-1052.29 470.03,-1058.29 464.03,-1064.29 458.03,-1064.29"/>
<text text-anchor="middle" x="432.28" y="-1047.69" font-family="Times,serif" font-size="14.00">Tank 2</text>
<text text-anchor="middle" x="432.28" y="-1030.89" font-family="Times,serif" font-size="14.00">EC Sensor</text>
<text text-anchor="middle" x="432.28" y="-1014.09" font-family="Times,serif" font-size="14.00">R1=5.1kΩ</text>
<text text-anchor="middle" x="432.28" y="-997.29" font-family="Times,serif" font-size="14.00">R2=10kΩ</text>
</g>
<!-- ESP32&#45;&gt;EC2 -->
<g id="edge6" class="edge">
<title>ESP32-&gt;EC2</title>
<path fill="none" stroke="black" d="M172.95,-828.06C194.41,-857.3 221.33,-890.11 250,-915.69 294.75,-955.61 355.73,-989.57 394.31,-1009.06"/>
<text text-anchor="middle" x="303.07" y="-991.48" font-family="Times,serif" font-size="14.00">Analog/Digital I/O</text>
</g>
<!-- EC3 -->
<g id="node8" class="node">
<title>EC3</title>
<path fill="none" stroke="black" d="M458.03,-971.29C458.03,-971.29 406.53,-971.29 406.53,-971.29 400.53,-971.29 394.53,-965.29 394.53,-959.29 394.53,-959.29 394.53,-908.09 394.53,-908.09 394.53,-902.09 400.53,-896.09 406.53,-896.09 406.53,-896.09 458.03,-896.09 458.03,-896.09 464.03,-896.09 470.03,-902.09 470.03,-908.09 470.03,-908.09 470.03,-959.29 470.03,-959.29 470.03,-965.29 464.03,-971.29 458.03,-971.29"/>
<text text-anchor="middle" x="432.28" y="-954.69" font-family="Times,serif" font-size="14.00">Tank 3</text>
<text text-anchor="middle" x="432.28" y="-937.89" font-family="Times,serif" font-size="14.00">EC Sensor</text>
<text text-anchor="middle" x="432.28" y="-921.09" font-family="Times,serif" font-size="14.00">R1=5.1kΩ</text>
<text text-anchor="middle" x="432.28" y="-904.29" font-family="Times,serif" font-size="14.00">R2=10kΩ</text>
</g>
<!-- ESP32&#45;&gt;EC3 -->
<g id="edge7" class="edge">
<title>ESP32-&gt;EC3</title>
<path fill="none" stroke="black" d="M232.28,-827.94C238.24,-831.63 244.17,-835.24 250,-838.69 298.77,-867.55 357.14,-897.33 394.22,-915.67"/>
<text text-anchor="middle" x="303.07" y="-898.72" font-family="Times,serif" font-size="14.00">Analog/Digital I/O</text>
</g>
<!-- EC4 -->
<g id="node9" class="node">
<title>EC4</title>
<path fill="none" stroke="black" d="M458.03,-878.29C458.03,-878.29 406.53,-878.29 406.53,-878.29 400.53,-878.29 394.53,-872.29 394.53,-866.29 394.53,-866.29 394.53,-815.09 394.53,-815.09 394.53,-809.09 400.53,-803.09 406.53,-803.09 406.53,-803.09 458.03,-803.09 458.03,-803.09 464.03,-803.09 470.03,-809.09 470.03,-815.09 470.03,-815.09 470.03,-866.29 470.03,-866.29 470.03,-872.29 464.03,-878.29 458.03,-878.29"/>
<text text-anchor="middle" x="432.28" y="-861.69" font-family="Times,serif" font-size="14.00">Tank 4</text>
<text text-anchor="middle" x="432.28" y="-844.89" font-family="Times,serif" font-size="14.00">EC Sensor</text>
<text text-anchor="middle" x="432.28" y="-828.09" font-family="Times,serif" font-size="14.00">R1=5.1kΩ</text>
<text text-anchor="middle" x="432.28" y="-811.29" font-family="Times,serif" font-size="14.00">R2=10kΩ</text>
</g>
<!-- ESP32&#45;&gt;EC4 -->
<g id="edge8" class="edge">
<title>ESP32-&gt;EC4</title>
<path fill="none" stroke="black" d="M232.12,-785.41C288.53,-801.07 354.13,-819.27 394.16,-830.38"/>
<text text-anchor="middle" x="303.07" y="-822.09" font-family="Times,serif" font-size="14.00">Analog/Digital I/O</text>
</g>
<!-- DS18B20 -->
<g id="node10" class="node">
<title>DS18B20</title>
<path fill="none" stroke="black" d="M464.07,-784.89C464.07,-784.89 400.5,-784.89 400.5,-784.89 394.5,-784.89 388.5,-778.89 388.5,-772.89 388.5,-772.89 388.5,-738.49 388.5,-738.49 388.5,-732.49 394.5,-726.49 400.5,-726.49 400.5,-726.49 464.07,-726.49 464.07,-726.49 470.07,-726.49 476.07,-732.49 476.07,-738.49 476.07,-738.49 476.07,-772.89 476.07,-772.89 476.07,-778.89 470.07,-784.89 464.07,-784.89"/>
<text text-anchor="middle" x="432.28" y="-768.29" font-family="Times,serif" font-size="14.00">DS18B20</text>
<text text-anchor="middle" x="432.28" y="-751.49" font-family="Times,serif" font-size="14.00">1-Wire Bus</text>
<text text-anchor="middle" x="432.28" y="-734.69" font-family="Times,serif" font-size="14.00">4.7kΩ Pullup</text>
</g>
<!-- ESP32&#45;&gt;DS18B20 -->
<g id="edge9" class="edge">
<title>ESP32-&gt;DS18B20</title>
<path fill="none" stroke="black" d="M232.12,-755.69C285.77,-755.69 347.73,-755.69 388.11,-755.69"/>
<text text-anchor="middle" x="303.07" y="-759.89" font-family="Times,serif" font-size="14.00">Analog/Digital I/O</text>
</g>
<!-- JSN_SR04T -->
<g id="node11" class="node">
<title>JSN_SR04T</title>
<path fill="none" stroke="black" d="M462.13,-708.89C462.13,-708.89 402.44,-708.89 402.44,-708.89 396.44,-708.89 390.44,-702.89 390.44,-696.89 390.44,-696.89 390.44,-662.49 390.44,-662.49 390.44,-656.49 396.44,-650.49 402.44,-650.49 402.44,-650.49 462.13,-650.49 462.13,-650.49 468.13,-650.49 474.13,-656.49 474.13,-662.49 474.13,-662.49 474.13,-696.89 474.13,-696.89 474.13,-702.89 468.13,-708.89 462.13,-708.89"/>
<text text-anchor="middle" x="432.28" y="-692.29" font-family="Times,serif" font-size="14.00">JSN-SR04T</text>
<text text-anchor="middle" x="432.28" y="-675.49" font-family="Times,serif" font-size="14.00">Trig/D10</text>
<text text-anchor="middle" x="432.28" y="-658.69" font-family="Times,serif" font-size="14.00">Echo/D11</text>
</g>
<!-- ESP32&#45;&gt;JSN_SR04T -->
<g id="edge10" class="edge">
<title>ESP32-&gt;JSN_SR04T</title>
<path fill="none" stroke="black" d="M232.12,-729.1C286.64,-715.58 349.72,-699.92 390.04,-689.92"/>
<text text-anchor="middle" x="303.07" y="-728.69" font-family="Times,serif" font-size="14.00">Analog/Digital I/O</text>
</g>
<!-- Pump1 -->
<g id="node12" class="node">
<title>Pump1</title>
<path fill="none" stroke="black" d="M472.42,-569.29C472.42,-569.29 392.15,-569.29 392.15,-569.29 386.15,-569.29 380.15,-563.29 380.15,-557.29 380.15,-557.29 380.15,-506.09 380.15,-506.09 380.15,-500.09 386.15,-494.09 392.15,-494.09 392.15,-494.09 472.42,-494.09 472.42,-494.09 478.42,-494.09 484.42,-500.09 484.42,-506.09 484.42,-506.09 484.42,-557.29 484.42,-557.29 484.42,-563.29 478.42,-569.29 472.42,-569.29"/>
<text text-anchor="middle" x="432.28" y="-552.69" font-family="Times,serif" font-size="14.00">Pump 1</text>
<text text-anchor="middle" x="432.28" y="-535.89" font-family="Times,serif" font-size="14.00">1kΩ Resistor</text>
<text text-anchor="middle" x="432.28" y="-519.09" font-family="Times,serif" font-size="14.00">1N4007 Diode</text>
<text text-anchor="middle" x="432.28" y="-502.29" font-family="Times,serif" font-size="14.00">NPN Transistor</text>
</g>
<!-- ESP32&#45;&gt;Pump1 -->
<g id="edge11" class="edge">
<title>ESP32-&gt;Pump1</title>
<path fill="none" stroke="black" d="M224.02,-683.27C275.93,-645.31 337.36,-600.38 379.79,-569.34"/>
<text text-anchor="middle" x="303.07" y="-667.95" font-family="Times,serif" font-size="14.00">Digital Outputs</text>
</g>
<!-- Pump2 -->
<g id="node13" class="node">
<title>Pump2</title>
<path fill="none" stroke="black" d="M472.42,-476.29C472.42,-476.29 392.15,-476.29 392.15,-476.29 386.15,-476.29 380.15,-470.29 380.15,-464.29 380.15,-464.29 380.15,-413.09 380.15,-413.09 380.15,-407.09 386.15,-401.09 392.15,-401.09 392.15,-401.09 472.42,-401.09 472.42,-401.09 478.42,-401.09 484.42,-407.09 484.42,-413.09 484.42,-413.09 484.42,-464.29 484.42,-464.29 484.42,-470.29 478.42,-476.29 472.42,-476.29"/>
<text text-anchor="middle" x="432.28" y="-459.69" font-family="Times,serif" font-size="14.00">Pump 2</text>
<text text-anchor="middle" x="432.28" y="-442.89" font-family="Times,serif" font-size="14.00">1kΩ Resistor</text>
<text text-anchor="middle" x="432.28" y="-426.09" font-family="Times,serif" font-size="14.00">1N4007 Diode</text>
<text text-anchor="middle" x="432.28" y="-409.29" font-family="Times,serif" font-size="14.00">NPN Transistor</text>
</g>
<!-- ESP32&#45;&gt;Pump2 -->
<g id="edge12" class="edge">
<title>ESP32-&gt;Pump2</title>
<path fill="none" stroke="black" d="M165.98,-683.62C188.29,-647.67 217.87,-604.74 250,-570.89 293.77,-524.78 312.55,-521.82 364.15,-484.69 369.19,-481.05 374.49,-477.31 379.8,-473.61"/>
<text text-anchor="middle" x="303.07" y="-575.09" font-family="Times,serif" font-size="14.00">Digital Outputs</text>
</g>
<!-- Pump3 -->
<g id="node14" class="node">
<title>Pump3</title>
<path fill="none" stroke="black" d="M472.42,-383.29C472.42,-383.29 392.15,-383.29 392.15,-383.29 386.15,-383.29 380.15,-377.29 380.15,-371.29 380.15,-371.29 380.15,-320.09 380.15,-320.09 380.15,-314.09 386.15,-308.09 392.15,-308.09 392.15,-308.09 472.42,-308.09 472.42,-308.09 478.42,-308.09 484.42,-314.09 484.42,-320.09 484.42,-320.09 484.42,-371.29 484.42,-371.29 484.42,-377.29 478.42,-383.29 472.42,-383.29"/>
<text text-anchor="middle" x="432.28" y="-366.69" font-family="Times,serif" font-size="14.00">Pump 3</text>
<text text-anchor="middle" x="432.28" y="-349.89" font-family="Times,serif" font-size="14.00">1kΩ Resistor</text>
<text text-anchor="middle" x="432.28" y="-333.09" font-family="Times,serif" font-size="14.00">1N4007 Diode</text>
<text text-anchor="middle" x="432.28" y="-316.29" font-family="Times,serif" font-size="14.00">NPN Transistor</text>
</g>
<!-- ESP32&#45;&gt;Pump3 -->
<g id="edge13" class="edge">
<title>ESP32-&gt;Pump3</title>
<path fill="none" stroke="black" d="M144.34,-683.3C163.52,-621.59 197.7,-533.1 250,-469.89 285.63,-426.82 339.85,-392.37 379.71,-370.78"/>
<text text-anchor="middle" x="303.07" y="-474.09" font-family="Times,serif" font-size="14.00">Digital Outputs</text>
</g>
<!-- Pump4 -->
<g id="node15" class="node">
<title>Pump4</title>
<path fill="none" stroke="black" d="M472.42,-290.29C472.42,-290.29 392.15,-290.29 392.15,-290.29 386.15,-290.29 380.15,-284.29 380.15,-278.29 380.15,-278.29 380.15,-227.09 380.15,-227.09 380.15,-221.09 386.15,-215.09 392.15,-215.09 392.15,-215.09 472.42,-215.09 472.42,-215.09 478.42,-215.09 484.42,-221.09 484.42,-227.09 484.42,-227.09 484.42,-278.29 484.42,-278.29 484.42,-284.29 478.42,-290.29 472.42,-290.29"/>
<text text-anchor="middle" x="432.28" y="-273.69" font-family="Times,serif" font-size="14.00">Pump 4</text>
<text text-anchor="middle" x="432.28" y="-256.89" font-family="Times,serif" font-size="14.00">1kΩ Resistor</text>
<text text-anchor="middle" x="432.28" y="-240.09" font-family="Times,serif" font-size="14.00">1N4007 Diode</text>
<text text-anchor="middle" x="432.28" y="-223.29" font-family="Times,serif" font-size="14.00">NPN Transistor</text>
</g>
<!-- ESP32&#45;&gt;Pump4 -->
<g id="edge14" class="edge">
<title>ESP32-&gt;Pump4</title>
<path fill="none" stroke="black" d="M132.76,-683.22C145.03,-598.77 175.68,-458.72 250,-363.89 283.71,-320.87 339.03,-290.43 379.71,-272.4"/>
<text text-anchor="middle" x="303.07" y="-368.09" font-family="Times,serif" font-size="14.00">Digital Outputs</text>
</g>
<!-- Solenoid -->
<g id="node16" class="node">
<title>Solenoid</title>
<path fill="none" stroke="black" d="M472.42,-197.29C472.42,-197.29 392.15,-197.29 392.15,-197.29 386.15,-197.29 380.15,-191.29 380.15,-185.29 380.15,-185.29 380.15,-134.09 380.15,-134.09 380.15,-128.09 386.15,-122.09 392.15,-122.09 392.15,-122.09 472.42,-122.09 472.42,-122.09 478.42,-122.09 484.42,-128.09 484.42,-134.09 484.42,-134.09 484.42,-185.29 484.42,-185.29 484.42,-191.29 478.42,-197.29 472.42,-197.29"/>
<text text-anchor="middle" x="432.28" y="-180.69" font-family="Times,serif" font-size="14.00">Solenoid Valve</text>
<text text-anchor="middle" x="432.28" y="-163.89" font-family="Times,serif" font-size="14.00">1kΩ Resistor</text>
<text text-anchor="middle" x="432.28" y="-147.09" font-family="Times,serif" font-size="14.00">1N4007 Diode</text>
<text text-anchor="middle" x="432.28" y="-130.29" font-family="Times,serif" font-size="14.00">NPN Transistor</text>
</g>
<!-- ESP32&#45;&gt;Solenoid -->
<g id="edge15" class="edge">
<title>ESP32-&gt;Solenoid</title>
<path fill="none" stroke="black" d="M126.23,-683.5C131.49,-580.44 154.56,-389.69 250,-263.89 282.69,-220.79 338.74,-192.56 379.88,-176.49"/>
<text text-anchor="middle" x="303.07" y="-268.09" font-family="Times,serif" font-size="14.00">Digital Outputs</text>
</g>
<!-- RefillPump -->
<g id="node17" class="node">
<title>RefillPump</title>
<path fill="none" stroke="black" d="M472.42,-104.29C472.42,-104.29 392.15,-104.29 392.15,-104.29 386.15,-104.29 380.15,-98.29 380.15,-92.29 380.15,-92.29 380.15,-41.09 380.15,-41.09 380.15,-35.09 386.15,-29.09 392.15,-29.09 392.15,-29.09 472.42,-29.09 472.42,-29.09 478.42,-29.09 484.42,-35.09 484.42,-41.09 484.42,-41.09 484.42,-92.29 484.42,-92.29 484.42,-98.29 478.42,-104.29 472.42,-104.29"/>
<text text-anchor="middle" x="432.28" y="-87.69" font-family="Times,serif" font-size="14.00">Refill Pump</text>
<text text-anchor="middle" x="432.28" y="-70.89" font-family="Times,serif" font-size="14.00">1kΩ Resistor</text>
<text text-anchor="middle" x="432.28" y="-54.09" font-family="Times,serif" font-size="14.00">1N4007 Diode</text>
<text text-anchor="middle" x="432.28" y="-37.29" font-family="Times,serif" font-size="14.00">NPN Transistor</text>
</g>
<!-- ESP32&#45;&gt;RefillPump -->
<g id="edge16" class="edge">
<title>ESP32-&gt;RefillPump</title>
<path fill="none" stroke="black" d="M132.87,-683.28C149.11,-544.89 189.92,-249.32 250,-167.89 281.99,-124.52 338.44,-97.29 379.87,-82.14"/>
<text text-anchor="middle" x="303.07" y="-172.09" font-family="Times,serif" font-size="14.00">Digital Outputs</text>
</g>
<!-- GND -->
<g id="node19" class="node">
<title>GND</title>
<path fill="none" stroke="black" d="M765.48,-704.48C765.48,-704.48 706.21,-677.29 706.21,-677.29 700.76,-674.79 701.3,-672.29 707.3,-672.29 707.3,-672.29 845.46,-672.29 845.46,-672.29 851.46,-672.29 852.01,-674.79 846.56,-677.29 846.56,-677.29 787.29,-704.48 787.29,-704.48 781.84,-706.98 770.93,-706.98 765.48,-704.48"/>
<text text-anchor="middle" x="776.38" y="-680.49" font-family="Times,serif" font-size="14.00">Ground</text>
</g>
<!-- ESP32&#45;&gt;GND -->
<g id="edge34" class="edge">
<title>ESP32-&gt;GND</title>
<path fill="none" stroke="black" d="M131.34,-683.2C145.75,-531.4 184.89,-186.16 250,-89.69 283.69,-39.77 306.35,-33.59 364.15,-16.69 497.38,22.27 580.56,-6.69 658.3,-121.69 722.75,-217.01 766.06,-597.1 774.05,-671.88"/>
</g>
<!-- LM7805 -->
<g id="node18" class="node">
<title>LM7805</title>
<path fill="none" stroke="black" d="M646.3,-709.89C646.3,-709.89 594.8,-709.89 594.8,-709.89 588.8,-709.89 582.8,-703.89 582.8,-697.89 582.8,-697.89 582.8,-663.49 582.8,-663.49 582.8,-657.49 588.8,-651.49 594.8,-651.49 594.8,-651.49 646.3,-651.49 646.3,-651.49 652.3,-651.49 658.3,-657.49 658.3,-663.49 658.3,-663.49 658.3,-697.89 658.3,-697.89 658.3,-703.89 652.3,-709.89 646.3,-709.89"/>
<text text-anchor="middle" x="620.55" y="-693.29" font-family="Times,serif" font-size="14.00">LM7805</text>
<text text-anchor="middle" x="620.55" y="-676.49" font-family="Times,serif" font-size="14.00">12V Input</text>
<text text-anchor="middle" x="620.55" y="-659.69" font-family="Times,serif" font-size="14.00">5V Output</text>
</g>
<!-- PH1&#45;&gt;LM7805 -->
<g id="edge23" class="edge">
<title>PH1-&gt;LM7805</title>
<path fill="none" stroke="black" d="M470.09,-1500.84C502.3,-1479.29 546.69,-1443.03 564.8,-1397.69 615.97,-1269.58 619.6,-828.31 619.63,-710.04"/>
<text text-anchor="middle" x="536.61" y="-1475.14" font-family="Times,serif" font-size="14.00">5V Power</text>
</g>
<!-- PH1&#45;&gt;GND -->
<g id="edge41" class="edge">
<title>PH1-&gt;GND</title>
<path fill="none" stroke="black" d="M470.04,-1521.75C498.41,-1519.33 537.32,-1512.12 564.8,-1491.69 631.51,-1442.08 629.68,-1407.73 658.3,-1329.69 743.34,-1097.82 768.34,-795.59 773.98,-708.89"/>
</g>
<!-- PH2&#45;&gt;LM7805 -->
<g id="edge24" class="edge">
<title>PH2-&gt;LM7805</title>
<path fill="none" stroke="black" d="M470.03,-1407.32C502.2,-1385.3 546.57,-1348.38 564.8,-1302.69 608.65,-1192.82 617.53,-818.2 619.19,-710.1"/>
<text text-anchor="middle" x="536.61" y="-1381.04" font-family="Times,serif" font-size="14.00">5V Power</text>
</g>
<!-- PH2&#45;&gt;GND -->
<g id="edge42" class="edge">
<title>PH2-&gt;GND</title>
<path fill="none" stroke="black" d="M469.96,-1428.31C498.29,-1425.58 537.18,-1418.03 564.8,-1397.69 629.89,-1349.75 628.8,-1316.94 658.3,-1241.69 735.56,-1044.58 765.51,-787.26 773.22,-708.57"/>
</g>
<!-- PH3&#45;&gt;LM7805 -->
<g id="edge25" class="edge">
<title>PH3-&gt;LM7805</title>
<path fill="none" stroke="black" d="M470.13,-1314.61C480.46,-1307.6 491.34,-1299.39 500.42,-1290.69 534.88,-1257.64 547.39,-1249.14 564.8,-1204.69 600.59,-1113.35 614.84,-807.19 618.52,-710.33"/>
<text text-anchor="middle" x="536.61" y="-1285.65" font-family="Times,serif" font-size="14.00">5V Power</text>
</g>
<!-- PH3&#45;&gt;GND -->
<g id="edge43" class="edge">
<title>PH3-&gt;GND</title>
<path fill="none" stroke="black" d="M470.04,-1334.31C498.22,-1330.9 536.89,-1322.64 564.8,-1302.69 626.27,-1258.73 628.06,-1229.93 658.3,-1160.69 730.25,-995.93 763.18,-778.96 772.5,-708.13"/>
</g>
<!-- PH4&#45;&gt;LM7805 -->
<g id="edge26" class="edge">
<title>PH4-&gt;LM7805</title>
<path fill="none" stroke="black" d="M469.96,-1220.38C480.52,-1212.66 491.56,-1203.5 500.42,-1193.69 537.86,-1152.2 546.38,-1138.44 564.8,-1085.69 611.76,-951.21 618.74,-778.59 619.57,-710.35"/>
<text text-anchor="middle" x="536.61" y="-1188.43" font-family="Times,serif" font-size="14.00">5V Power</text>
</g>
<!-- PH4&#45;&gt;GND -->
<g id="edge44" class="edge">
<title>PH4-&gt;GND</title>
<path fill="none" stroke="black" d="M470.01,-1240.03C498.36,-1235.61 537.26,-1225.91 564.8,-1204.69 731.81,-1075.95 766.95,-793.05 773.82,-708.81"/>
</g>
<!-- EC1&#45;&gt;LM7805 -->
<g id="edge27" class="edge">
<title>EC1-&gt;LM7805</title>
<path fill="none" stroke="black" d="M470.32,-1097.2C480.55,-1090.24 491.32,-1082.16 500.42,-1073.69 534.07,-1042.34 545.94,-1034.63 564.8,-992.69 608.45,-895.64 617.4,-767.04 619.16,-710.04"/>
<text text-anchor="middle" x="536.61" y="-1069.13" font-family="Times,serif" font-size="14.00">5V Power</text>
</g>
<!-- EC1&#45;&gt;GND -->
<g id="edge45" class="edge">
<title>EC1-&gt;GND</title>
<path fill="none" stroke="black" d="M470.33,-1116.82C498.31,-1113.15 536.57,-1104.77 564.8,-1085.69 703.22,-992.09 756.94,-777.58 771.2,-707.38"/>
</g>
<!-- EC2&#45;&gt;LM7805 -->
<g id="edge28" class="edge">
<title>EC2-&gt;LM7805</title>
<path fill="none" stroke="black" d="M470.29,-1004.17C480.51,-997.21 491.3,-989.13 500.42,-980.69 533.91,-949.68 544.51,-941.57 564.8,-900.69 596.39,-837.05 610.65,-753.78 616.32,-710.2"/>
<text text-anchor="middle" x="536.61" y="-976.21" font-family="Times,serif" font-size="14.00">5V Power</text>
</g>
<!-- EC2&#45;&gt;GND -->
<g id="edge46" class="edge">
<title>EC2-&gt;GND</title>
<path fill="none" stroke="black" d="M470.39,-1023.42C498.22,-1019.55 536.26,-1011.09 564.8,-992.69 677.77,-919.85 745.95,-762.74 767.74,-705.82"/>
</g>
<!-- EC3&#45;&gt;LM7805 -->
<g id="edge29" class="edge">
<title>EC3-&gt;LM7805</title>
<path fill="none" stroke="black" d="M470.43,-910.7C480.55,-903.79 491.24,-895.86 500.42,-887.69 532.97,-858.69 541.9,-850.78 564.8,-813.69 585.34,-780.44 601.23,-738.14 610.48,-710.27"/>
<text text-anchor="middle" x="536.61" y="-883.77" font-family="Times,serif" font-size="14.00">5V Power</text>
</g>
<!-- EC3&#45;&gt;GND -->
<g id="edge47" class="edge">
<title>EC3-&gt;GND</title>
<path fill="none" stroke="black" d="M470.48,-929.88C498,-925.8 535.62,-917.47 564.8,-900.69 655.6,-848.46 733.05,-746 762.6,-703.67"/>
</g>
<!-- EC4&#45;&gt;LM7805 -->
<g id="edge30" class="edge">
<title>EC4-&gt;LM7805</title>
<path fill="none" stroke="black" d="M470.44,-818.64C480.35,-812.44 490.94,-805.51 500.42,-798.69 530.5,-777.03 538.45,-771.74 564.8,-745.69 575.92,-734.69 587.22,-721.66 596.65,-710.16"/>
<text text-anchor="middle" x="536.61" y="-796.84" font-family="Times,serif" font-size="14.00">5V Power</text>
</g>
<!-- EC4&#45;&gt;GND -->
<g id="edge48" class="edge">
<title>EC4-&gt;GND</title>
<path fill="none" stroke="black" d="M470.52,-836.45C497.39,-832.58 534.17,-825.6 564.8,-813.69 640.52,-784.23 719.53,-727.7 755.47,-700.31"/>
</g>
<!-- DS18B20&#45;&gt;LM7805 -->
<g id="edge31" class="edge">
<title>DS18B20-&gt;LM7805</title>
<path fill="none" stroke="black" d="M476.49,-738.29C508.62,-725.35 552.01,-707.88 582.56,-695.58"/>
<text text-anchor="middle" x="536.61" y="-729.1" font-family="Times,serif" font-size="14.00">5V Power</text>
</g>
<!-- DS18B20&#45;&gt;GND -->
<g id="edge49" class="edge">
<title>DS18B20-&gt;GND</title>
<path fill="none" stroke="black" d="M476.52,-757.13C526.38,-757.44 610.12,-753.74 677.3,-729.69 702.7,-720.59 730.56,-707.49 750.08,-697.77"/>
</g>
<!-- JSN_SR04T&#45;&gt;LM7805 -->
<g id="edge32" class="edge">
<title>JSN_SR04T-&gt;LM7805</title>
<path fill="none" stroke="black" d="M474.62,-679.91C506.89,-680.08 551.3,-680.32 582.44,-680.49"/>
<text text-anchor="middle" x="536.61" y="-684.59" font-family="Times,serif" font-size="14.00">5V Power</text>
</g>
<!-- JSN_SR04T&#45;&gt;GND -->
<g id="edge50" class="edge">
<title>JSN_SR04T-&gt;GND</title>
<path fill="none" stroke="black" d="M474.47,-694.2C502.39,-703.24 540.33,-714.02 574.8,-718.69 611.58,-723.66 621.56,-723.91 658.3,-718.69 688.69,-714.36 722.21,-704.03 745.58,-695.88"/>
</g>
<!-- Pump1&#45;&gt;LM7805 -->
<g id="edge17" class="edge">
<title>Pump1-&gt;LM7805</title>
<path fill="none" stroke="black" d="M480.77,-569.67C512.35,-594.93 553.24,-627.64 582.44,-650.99"/>
<text text-anchor="middle" x="536.61" y="-640.86" font-family="Times,serif" font-size="14.00">5V Power</text>
</g>
<!-- Pump1&#45;&gt;GND -->
<g id="edge35" class="edge">
<title>Pump1-&gt;GND</title>
<path fill="none" stroke="black" d="M484.91,-553.8C509.2,-564.27 538.54,-577.01 564.8,-588.69 630.71,-617.98 707.72,-653.39 747.86,-671.94"/>
</g>
<!-- Pump2&#45;&gt;LM7805 -->
<g id="edge18" class="edge">
<title>Pump2-&gt;LM7805</title>
<path fill="none" stroke="black" d="M484.91,-471.38C490.36,-475.6 495.64,-480.07 500.42,-484.69 551.56,-534.05 589.3,-609.87 607.47,-651.25"/>
<text text-anchor="middle" x="536.61" y="-567.68" font-family="Times,serif" font-size="14.00">5V Power</text>
</g>
<!-- Pump2&#45;&gt;GND -->
<g id="edge36" class="edge">
<title>Pump2-&gt;GND</title>
<path fill="none" stroke="black" d="M484.73,-453.6C509.93,-462.14 540.09,-474.24 564.8,-489.69 652.27,-544.34 735.97,-638.1 764.81,-671.99"/>
</g>
<!-- Pump3&#45;&gt;LM7805 -->
<g id="edge19" class="edge">
<title>Pump3-&gt;LM7805</title>
<path fill="none" stroke="black" d="M484.75,-378.55C490.23,-382.74 495.56,-387.16 500.42,-391.69 534.1,-423.1 544.19,-431.7 564.8,-472.89 594.52,-532.27 609.38,-609.54 615.68,-651.11"/>
<text text-anchor="middle" x="536.61" y="-477.09" font-family="Times,serif" font-size="14.00">5V Power</text>
</g>
<!-- Pump3&#45;&gt;GND -->
<g id="edge37" class="edge">
<title>Pump3-&gt;GND</title>
<path fill="none" stroke="black" d="M484.76,-359.95C510.11,-368.36 540.39,-380.54 564.8,-396.69 676.92,-470.82 750.27,-626.21 770.02,-671.83"/>
</g>
<!-- Pump4&#45;&gt;LM7805 -->
<g id="edge20" class="edge">
<title>Pump4-&gt;LM7805</title>
<path fill="none" stroke="black" d="M484.88,-282.54C490.66,-287.39 496.03,-292.79 500.42,-298.69 507.39,-308.04 502.34,-313.73 508.42,-323.69 526.86,-353.88 548.35,-348.56 564.8,-379.89 612.31,-470.35 619.33,-594.85 619.89,-651.04"/>
<text text-anchor="middle" x="536.61" y="-384.09" font-family="Times,serif" font-size="14.00">5V Power</text>
</g>
<!-- Pump4&#45;&gt;GND -->
<g id="edge38" class="edge">
<title>Pump4-&gt;GND</title>
<path fill="none" stroke="black" d="M484.8,-282.7C492.67,-287.13 500.73,-291.58 508.42,-295.69 580.17,-333.99 609.96,-335.28 658.3,-400.69 726.29,-492.68 762.54,-629.9 772.51,-671.97"/>
</g>
<!-- Solenoid&#45;&gt;LM7805 -->
<g id="edge21" class="edge">
<title>Solenoid-&gt;LM7805</title>
<path fill="none" stroke="black" d="M484.69,-186.33C490.65,-191.12 496.12,-196.57 500.42,-202.69 509.6,-215.74 501.21,-223.45 508.42,-237.69 525.73,-271.86 548.89,-268.04 564.8,-302.89 593.27,-365.2 611.47,-573.28 617.41,-651.04"/>
<text text-anchor="middle" x="536.61" y="-307.09" font-family="Times,serif" font-size="14.00">5V Power</text>
</g>
<!-- Solenoid&#45;&gt;GND -->
<g id="edge39" class="edge">
<title>Solenoid-&gt;GND</title>
<path fill="none" stroke="black" d="M484.78,-191.54C490.14,-195.19 495.44,-198.94 500.42,-202.69 504.2,-205.52 504.49,-207.06 508.42,-209.69 531.67,-225.25 541.79,-221.77 564.8,-237.69 611.49,-269.98 627.77,-276.83 658.3,-324.69 735.72,-446.02 766.36,-623.22 773.61,-671.9"/>
</g>
<!-- RefillPump&#45;&gt;LM7805 -->
<g id="edge22" class="edge">
<title>RefillPump-&gt;LM7805</title>
<path fill="none" stroke="black" d="M484.61,-98.45C490.23,-102.9 495.64,-107.68 500.42,-112.69 537.99,-152.08 546.88,-165.48 564.8,-216.89 593.07,-297.94 612.03,-562.23 617.74,-651.17"/>
<text text-anchor="middle" x="536.61" y="-221.09" font-family="Times,serif" font-size="14.00">5V Power</text>
</g>
<!-- RefillPump&#45;&gt;GND -->
<g id="edge40" class="edge">
<title>RefillPump-&gt;GND</title>
<path fill="none" stroke="black" d="M484.68,-79.41C510.45,-87.49 541.13,-99.86 564.8,-117.69 619.66,-158.99 628.19,-178.97 658.3,-240.69 736.08,-400.1 767.1,-617.81 773.89,-672.06"/>
</g>
<!-- LM7805&#45;&gt;GND -->
<g id="edge33" class="edge">
<title>LM7805-&gt;GND</title>
<path fill="none" stroke="black" d="M658.79,-681.65C676.58,-682.12 698.26,-682.68 718.08,-683.2"/>
</g>
</g>
</svg>